{"asset":{"version":"2.0","generator":"babylon.js glTF exporter for 3dsmax 2020 v20210811.2"},"scene":0,"scenes":[{"nodes":[0]}],"nodes":[{"mesh":0,"scale":[25.4,25.4,25.4],"name":"Box2131649818"}],"meshes":[{"primitives":[{"attributes":{"POSITION":1,"NORMAL":2,"TEXCOORD_0":3},"indices":0}],"name":"Box2131649818"}],"accessors":[{"bufferView":0,"componentType":5125,"count":1383117,"type":"SCALAR","name":"accessorIndices"},{"bufferView":1,"componentType":5126,"count":1087445,"max":[101.720749,33.9599724,79.03845],"min":[-47.5201759,-3.31391859,-103.704651],"type":"VEC3","name":"accessorPositions"},{"bufferView":1,"byteOffset":13049340,"componentType":5126,"count":1087445,"type":"VEC3","name":"accessorNormals"},{"bufferView":2,"componentType":5126,"count":1087445,"type":"VEC2","name":"accessorUVs"}],"bufferViews":[{"buffer":0,"byteLength":5532468,"name":"bufferViewScalar"},{"buffer":0,"byteOffset":5532468,"byteLength":26098680,"byteStride":12,"name":"bufferViewFloatVec3"},{"buffer":0,"byteOffset":31631148,"byteLength":8699560,"byteStride":8,"name":"bufferViewFloatVec2"}],"buffers":[{"uri":"Building.bin","byteLength":40330708}]}